<?xml version="1.0" encoding="UTF-8"?>
<svg width="230px" height="230px" viewBox="0 0 230 230" version="1.1" xmlns="http://www.w3.org/2000/svg" xmlns:xlink="http://www.w3.org/1999/xlink">
    <title>404</title>
    <defs>
        <linearGradient x1="100%" y1="46.1950059%" x2="-5.64856488%" y2="54.1794919%" id="linearGradient-1">
            <stop stop-color="#6973C1" offset="0%"></stop>
            <stop stop-color="#0D1677" offset="100%"></stop>
        </linearGradient>
        <linearGradient x1="100%" y1="46.2809917%" x2="-5.64856488%" y2="54.0850431%" id="linearGradient-2">
            <stop stop-color="#6973C1" offset="0%"></stop>
            <stop stop-color="#0D1677" offset="100%"></stop>
        </linearGradient>
        <linearGradient x1="100%" y1="48.4250076%" x2="-5.64856488%" y2="51.7300074%" id="linearGradient-3">
            <stop stop-color="#6973C1" offset="0%"></stop>
            <stop stop-color="#0D1677" offset="100%"></stop>
        </linearGradient>
        <linearGradient x1="68.1546226%" y1="48.9618892%" x2="0%" y2="52.6627219%" id="linearGradient-4">
            <stop stop-color="#7DD2FB" offset="0%"></stop>
            <stop stop-color="#3797E2" offset="100%"></stop>
        </linearGradient>
        <linearGradient x1="100%" y1="48.2421875%" x2="-5.64856488%" y2="51.9308212%" id="linearGradient-5">
            <stop stop-color="#6973C1" offset="0%"></stop>
            <stop stop-color="#0D1677" offset="100%"></stop>
        </linearGradient>
        <linearGradient x1="100%" y1="46.4444444%" x2="-5.64856488%" y2="53.905503%" id="linearGradient-6">
            <stop stop-color="#6973C1" offset="0%"></stop>
            <stop stop-color="#0D1677" offset="100%"></stop>
        </linearGradient>
        <linearGradient x1="82.7177198%" y1="50%" x2="-54.4559175%" y2="58.2427379%" id="linearGradient-7">
            <stop stop-color="#FFC856" offset="0%"></stop>
            <stop stop-color="#E23737" offset="100%"></stop>
        </linearGradient>
        <rect id="path-8" x="-2" y="24" width="76.7" height="23.4" rx="11.7"></rect>
        <linearGradient x1="31.948914%" y1="100%" x2="61.1237369%" y2="0%" id="linearGradient-10">
            <stop stop-color="#7DD2FB" offset="0%"></stop>
            <stop stop-color="#3797E2" offset="100%"></stop>
        </linearGradient>
        <linearGradient x1="100%" y1="37.5%" x2="-5.64856488%" y2="63.7302839%" id="linearGradient-11">
            <stop stop-color="#6973C1" offset="0%"></stop>
            <stop stop-color="#0D1677" offset="100%"></stop>
        </linearGradient>
        <linearGradient x1="3.30640475%" y1="24.6345195%" x2="78.8496645%" y2="75.6479312%" id="linearGradient-12">
            <stop stop-color="#B17C56" offset="0%"></stop>
            <stop stop-color="#FFFEFE" offset="76.5274504%"></stop>
            <stop stop-color="#FFFFFF" offset="100%"></stop>
        </linearGradient>
        <linearGradient x1="82.7177198%" y1="50%" x2="-54.4559175%" y2="66.2658564%" id="linearGradient-13">
            <stop stop-color="#FFC856" offset="0%"></stop>
            <stop stop-color="#E23737" offset="100%"></stop>
        </linearGradient>
        <linearGradient x1="62.5%" y1="0%" x2="36.0878588%" y2="104.921136%" id="linearGradient-14">
            <stop stop-color="#6973C1" offset="0%"></stop>
            <stop stop-color="#0D1677" offset="100%"></stop>
        </linearGradient>
        <linearGradient x1="54.5386556%" y1="30.5065855%" x2="37.5%" y2="100%" id="linearGradient-15">
            <stop stop-color="#7DD2FB" offset="0%"></stop>
            <stop stop-color="#3797E2" offset="100%"></stop>
        </linearGradient>
        <linearGradient x1="234.92467%" y1="50%" x2="-52.1473631%" y2="50%" id="linearGradient-16">
            <stop stop-color="#E23737" offset="0%"></stop>
            <stop stop-color="#FFC856" offset="100%"></stop>
        </linearGradient>
    </defs>
    <g id="404" stroke="none" stroke-width="1" fill="none" fill-rule="evenodd">
        <g id="编组-2" transform="translate(40.000000, 55.000000)">
            <rect id="矩形" fill="url(#linearGradient-1)" x="78" y="95.2" width="37.7" height="10.4"></rect>
            <polyline id="路径-11" stroke="#51ADEB" stroke-width="2.6" points="113.578754 88.6068939 124.005452 88.6068939 124.005452 100.4 115.7 100.4"></polyline>
            <polyline id="路径-11" stroke="#51ADEB" stroke-width="2.6" transform="translate(141.305782, 31.217126) rotate(-45.000000) translate(-141.305782, -31.217126) " points="136.092433 24.0671261 146.519131 24.0671261 146.519131 38.3671261 138.213679 38.3671261"></polyline>
            <rect id="矩形备份-6" fill="url(#linearGradient-2)" transform="translate(113.578754, 86.875052) rotate(-45.000000) translate(-113.578754, -86.875052) " x="106.428754" y="84.9250523" width="14.3" height="3.9"></rect>
            <path d="M80.4435085,24.3768218 L98.6435105,24.3952289 C99.7207841,24.3963184 100.593509,25.2699269 100.593509,26.3472011 C100.593509,27.4230677 99.7213473,28.2952299 98.6454807,28.2952299 C98.6448239,28.2952299 98.6441672,28.2952295 98.6435105,28.2952289 L80.4435085,28.2768218 C79.3662349,28.2757323 78.4935095,27.4021238 78.4935095,26.3248496 C78.4935095,25.248983 79.3656717,24.3768208 80.4415383,24.3768208 C80.442195,24.3768208 80.4428518,24.3768212 80.4435085,24.3768218 Z" id="矩形" fill="url(#linearGradient-3)" transform="translate(89.543509, 26.336025) rotate(-120.000000) translate(-89.543509, -26.336025) "></path>
            <rect id="矩形" fill="url(#linearGradient-4)" transform="translate(96.812076, 14.123222) rotate(-20.000000) translate(-96.812076, -14.123222) " x="79.9120762" y="10.2232221" width="33.8" height="7.8" rx="3.9"></rect>
            <rect id="矩形" fill="url(#linearGradient-5)" transform="translate(86.686258, 38.868102) scale(1, -1) rotate(-150.000000) translate(-86.686258, -38.868102) " x="76.2862583" y="36.9181019" width="20.8" height="3.9" rx="1.95"></rect>
            <rect id="矩形" fill="url(#linearGradient-6)" transform="translate(123.769239, 26.234672) rotate(45.000000) translate(-123.769239, -26.234672) " x="94.5192388" y="18.4346717" width="58.5" height="15.6" rx="7.8"></rect>
            <g id="编组-3" transform="translate(83.742284, 25.542284)">
                <mask id="mask-9" fill="white">
                    <use xlink:href="#path-8"></use>
                </mask>
                <use id="蒙版" fill="url(#linearGradient-7)" transform="translate(36.350000, 35.700000) rotate(-45.000000) translate(-36.350000, -35.700000) " xlink:href="#path-8"></use>
                <g mask="url(#mask-9)" stroke="#FFFFFF" stroke-linecap="square" stroke-width="2.6">
                    <g transform="translate(31.957716, 36.857716)">
                        <line x1="0.65" y1="8.45" x2="11.05" y2="18.85" id="直线-4"></line>
                        <line x1="4.55" y1="4.55" x2="14.95" y2="14.95" id="直线-4备份"></line>
                        <line x1="8.45" y1="0.65" x2="18.85" y2="11.05" id="直线-4备份-2"></line>
                    </g>
                </g>
            </g>
            <circle id="椭圆形" fill="#29328E" cx="101.4" cy="80.9" r="5.2"></circle>
            <circle id="椭圆形" fill="#29328E" cx="139.1" cy="41.9" r="5.2"></circle>
            <circle id="椭圆形" fill="url(#linearGradient-10)" cx="109.2" cy="10.7" r="3.9"></circle>
            <circle id="椭圆形" fill="#4049A0" cx="84.5" cy="18.5" r="1.3"></circle>
            <rect id="矩形备份-5" fill="#57D1B5" x="45.5" y="105.6" width="63.7" height="5.2"></rect>
            <g id="编组" transform="translate(0.000000, 32.800000)">
                <rect id="矩形" fill="url(#linearGradient-11)" x="0" y="10.4" width="78" height="39"></rect>
                <rect id="矩形" fill="#8A92E6" transform="translate(39.000000, 5.200000) scale(1, -1) translate(-39.000000, -5.200000) " x="0" y="0" width="78" height="10.4"></rect>
            </g>
            <g id="路径-2" transform="translate(10.400000, 41.886587)">
                <text id="蒙版" font-family="AlibabaPuHuiTi-Heavy, Alibaba PuHuiTi" font-size="28.6" font-weight="600" letter-spacing="1.3" fill="#FFFFFF">
                    <tspan x="0.8528" y="30.0134133">404</tspan>
                </text>
                <polygon fill="url(#linearGradient-12)" transform="translate(50.835100, 14.944015) rotate(-30.000000) translate(-50.835100, -14.944015) " points="48.4755303 13.5778968 51.5943105 16.3299677 53.1946703 13.5580632"></polygon>
            </g>
            <g id="编组-10" transform="translate(73.597051, 46.961268) rotate(-30.000000) translate(-73.597051, -46.961268) translate(55.597051, 41.461268)">
                <rect id="矩形" fill="url(#linearGradient-13)" x="14.3" y="1.3" width="18.2" height="7.8"></rect>
                <rect id="矩形" fill="url(#linearGradient-14)" x="10.4" y="1.3" width="3.9" height="7.8"></rect>
                <rect id="矩形" fill="url(#linearGradient-15)" x="7.8" y="2.6" width="2.6" height="5.2"></rect>
                <rect id="矩形" fill="url(#linearGradient-16)" x="0" y="3.9" width="7.8" height="2.6"></rect>
                <rect id="矩形" fill="#8A92E6" transform="translate(33.800000, 5.200000) scale(-1, 1) translate(-33.800000, -5.200000) " x="32.5" y="0" width="2.6" height="10.4"></rect>
                <circle id="椭圆形" fill="#2D3791" cx="28.6" cy="5.2" r="1.3"></circle>
            </g>
        </g>
    </g>
</svg>