<?xml version="1.0" encoding="UTF-8"?>
<svg width="30px" height="30px" viewBox="0 0 30 30" version="1.1" xmlns="http://www.w3.org/2000/svg" xmlns:xlink="http://www.w3.org/1999/xlink">
    <title>管理员-1</title>
    <g id="页面-1" stroke="none" stroke-width="1" fill="none" fill-rule="evenodd">
        <g id="管理-作品管理" transform="translate(-1233.000000, -16.000000)" fill-rule="nonzero">
            <g id="三级栏" transform="translate(118.000000, 0.000000)">
                <g id="管理员-1" transform="translate(1115.000000, 16.000000)">
                    <path d="M15.0066964,29.7287946 C6.88058036,29.7287946 0.274553571,23.1194196 0.274553571,14.9966518 C0.274553571,6.87388393 6.88392857,0.264508929 15.0066964,0.264508929 C23.1294643,0.264508929 29.7388393,6.87388393 29.7388393,14.9966518 C29.7388393,23.1194196 23.1294643,29.7287946 15.0066964,29.7287946 Z" id="路径" fill="#FFAA30"></path>
                    <path d="M15.0066964,0.518973214 C22.9955357,0.518973214 29.484375,6.99107143 29.484375,14.9966518 C29.484375,23.0022321 23.0122768,29.4743304 15.0066964,29.4743304 C7.01785714,29.4743304 0.529017857,23.0022321 0.529017857,14.9966518 C0.529017857,6.99107143 7.01785714,0.518973214 15.0066964,0.518973214 M15.0066964,0.00669642857 C6.74665179,0.00669642857 0.0167410714,6.73325893 0.0167410714,14.9966518 C0.0167410714,23.2600446 6.74330357,29.9866071 15.0066964,29.9866071 C23.2700893,29.9866071 29.9966518,23.2600446 29.9966518,14.9966518 C29.9966518,6.73325893 23.2667411,0.00669642857 15.0066964,0.00669642857 Z" id="形状" fill="#FFCA85"></path>
                    <path d="M16.0111607,16.9888393 C15.8738839,16.9720982 15.7566964,17.0223214 15.6529018,17.109375 C15.5859375,17.1763393 15.515625,17.2466518 15.4319196,17.3470982 C15.2946429,17.5011161 15.1607143,17.671875 15.0234375,17.7053571 C14.8861607,17.671875 14.7522321,17.5011161 14.5982143,17.3303571 C14.53125,17.2466518 14.4441964,17.1595982 14.3772321,17.0926339 C14.2734375,17.0089286 14.15625,16.9553571 14.0189732,16.9720982 C11.0223214,17.1930804 8.70535714,18.1975446 7.78459821,19.6808036 C7.68080357,19.8683036 5.82589286,23.2064732 6.01339286,26.3236607 C8.484375,28.2823661 11.6183036,29.4575893 15.0066964,29.4575893 C18.4118304,29.4575893 21.5290179,28.2823661 24,26.3236607 C24.1875,23.1395089 22.2455357,19.7142857 22.2120536,19.6640625 C21.3247768,18.2142857 19.0078125,17.2098214 16.0111607,16.9888393 Z M15.890625,25.8448661 C15.890625,25.8950893 15.8738839,25.9654018 15.8404018,25.9988839 L15.3113839,26.9698661 C15.2444196,27.0904018 15.1238839,27.1573661 14.9866071,27.1573661 C14.8493304,27.1573661 14.7321429,27.0904018 14.6618304,26.9698661 L14.1328125,25.9988839 C14.0993304,25.9486607 14.0993304,25.8950893 14.0825893,25.8448661 L13.8950893,18.8772321 C13.8950893,18.7566964 13.9453125,18.6395089 14.0491071,18.5691964 L14.7488839,18.0569196 C14.8694196,17.9732143 15.0368304,17.9732143 15.1741071,18.0569196 L15.890625,18.5691964 C15.9944196,18.6361607 16.0446429,18.7566964 16.0446429,18.8772321 L15.890625,25.8448661 Z M14.9196429,16.3928571 C17.7120536,16.3928571 19.9955357,14.109375 19.9955357,11.3169643 C19.9955357,8.52455357 17.7120536,6.24107143 14.9196429,6.24107143 C12.1272321,6.24107143 9.84375,8.52455357 9.84375,11.3169643 C9.84375,14.109375 12.1272321,16.3928571 14.9196429,16.3928571 Z" id="形状" fill="#FFFFFF"></path>
                </g>
            </g>
        </g>
    </g>
</svg>