<?xml version="1.0" encoding="UTF-8"?>
<svg width="36px" height="36px" viewBox="0 0 36 36" version="1.1" xmlns="http://www.w3.org/2000/svg" xmlns:xlink="http://www.w3.org/1999/xlink">
    <title>数据@2x</title>
    <g id="页面-1" stroke="none" stroke-width="1" fill="none" fill-rule="evenodd">
        <g id="数据-作品管理" transform="translate(-41.000000, -454.000000)" fill-rule="nonzero">
            <g id="数据" transform="translate(41.000000, 454.000000)">
                <path d="M3.25104864,2.9295302 C3.25104864,4.13603145 4.22911116,5.11409397 5.43561241,5.11409397 C6.64211366,5.11409397 7.62017617,4.13603145 7.62017617,2.9295302 C7.62017617,1.72302895 6.64211366,0.744966435 5.43561241,0.744966435 C4.22911116,0.744966435 3.25104864,1.72302895 3.25104864,2.9295302 L3.25104864,2.9295302 Z" id="路径" fill="#FFCA5F"></path>
                <polygon id="路径" fill="#FF6800" points="25.8013842 24.090604 16.3684983 18.1912752 16.3684983 8.62751679 19.3886326 8.62751679 19.3886326 16.5201342 27.4020554 21.5234899 25.8013842 24.090604"></polygon>
                <path d="M17.8785655,35.7583894 C11.1122385,35.7593436 4.92643274,31.936306 1.90129209,25.8838928 C-1.12384856,19.8314797 -0.468754218,12.5891968 3.59333055,7.17785236 L6.00943794,8.9899329 C1.48770972,15.0400689 2.23997471,23.5229802 7.75581865,28.6829838 C13.2716626,33.8429874 21.7858386,34.0287167 27.5214503,29.1141536 C33.257062,24.1995906 34.3785298,15.7575531 30.1249341,9.51599116 C25.8713385,3.27442924 17.6039663,1.23084286 10.9322567,4.77181208 L9.52286074,2.09395972 C16.0917714,-1.38089905 24.125635,-0.42746134 29.6987593,4.48838206 C35.2718836,9.40422546 37.2207928,17.2562163 34.5931658,24.2075333 C31.9655389,31.1588502 25.3099335,35.7583894 17.8785655,35.7583894 L17.8785655,35.7583894 Z" id="路径" fill="#FF6800"></path>
            </g>
        </g>
    </g>
</svg>