<?xml version="1.0" encoding="UTF-8"?>
<svg width="36px" height="36px" viewBox="0 0 36 36" version="1.1" xmlns="http://www.w3.org/2000/svg" xmlns:xlink="http://www.w3.org/1999/xlink">
    <title>首页@2x</title>
    <g id="页面-1" stroke="none" stroke-width="1" fill="none" fill-rule="evenodd">
        <g id="管理-作品管理" transform="translate(-41.000000, -109.000000)" fill-rule="nonzero">
            <g id="路径" transform="translate(41.000000, 109.000000)">
                <path d="M6.00803573,5.84263391 C6.00803573,6.65030934 6.43892541,7.39663223 7.13839285,7.80046996 C7.83786029,8.20430768 8.69963971,8.20430768 9.39910715,7.80046996 C10.0985746,7.39663223 10.5294643,6.65030934 10.5294643,5.84263391 C10.5294643,5.03495848 10.0985746,4.28863559 9.39910715,3.88479787 C8.69963971,3.48096014 7.83786029,3.48096014 7.13839285,3.88479787 C6.43892541,4.28863559 6.00803573,5.03495848 6.00803573,5.84263391 L6.00803573,5.84263391 Z" fill="#F6AA22"></path>
                <path d="M32.8794643,35.9069197 L23.9223214,35.9069197 C22.4649133,35.9069197 21.2817933,34.7286016 21.2758929,33.2712054 L21.2758929,22.7176339 L14.2366072,22.7176339 L14.2366072,33.2604911 C14.2366072,33.9595259 13.9589166,34.6299302 13.4646243,35.1242225 C12.970332,35.6185148 12.2999278,35.8962053 11.6008929,35.8962053 L2.68660713,35.8962053 C1.22919897,35.8962173 0.0460790001,34.7178873 0.0401785714,33.2604911 L0.0401785714,16.4497768 C0.0428952773,15.7067676 0.357834889,14.9991255 0.908035714,14.4997768 L6.09374998,9.78549107 L8.23660714,12.1640625 L3.2330357,16.7069196 L3.2330357,32.6926339 L11.0223214,32.6926339 L11.0223214,22.1604911 C11.0223095,20.6971656 12.2054364,19.5092487 13.66875,19.5033482 L21.8544643,19.5033482 C23.3118605,19.5092486 24.4901906,20.6923686 24.4901786,22.1497768 L24.4901786,32.6819196 L32.2580357,32.6819196 L32.2580357,16.7069196 L17.7616071,3.51763393 L14.4508928,6.52834823 L12.3080357,4.1497768 L16.1544643,0.656919643 C17.0695735,-0.161578953 18.4536407,-0.161578953 19.36875,0.656919643 L34.6151786,14.4997768 C35.1603236,15.0018048 35.4710412,15.7086873 35.4723214,16.4497768 L35.4723214,33.2712054 C35.4723214,34.7102963 34.318365,35.8835198 32.8794643,35.9069197 L32.8794643,35.9069197 Z" fill="#FFFFFF"></path>
            </g>
        </g>
    </g>
</svg>