<?xml version="1.0" encoding="UTF-8"?>
<svg width="34px" height="36px" viewBox="0 0 34 36" version="1.1" xmlns="http://www.w3.org/2000/svg" xmlns:xlink="http://www.w3.org/1999/xlink">
    <title>创作@2x</title>
    <g id="页面-1" stroke="none" stroke-width="1" fill="none" fill-rule="evenodd">
        <g id="首次登录-1" transform="translate(-42.000000, -224.000000)" fill-rule="nonzero">
            <g id="创作" transform="translate(42.000000, 224.000000)">
                <path d="M22.048125,2.041875 C22.0480156,2.7564791 22.4291895,3.41684734 23.0480366,3.77418097 C23.6668837,4.13151461 24.4293663,4.13151461 25.0482134,3.77418097 C25.6670605,3.41684734 26.0482344,2.7564791 26.048125,2.041875 C26.0482344,1.3272709 25.6670605,0.666902663 25.0482134,0.309569026 C24.4293663,-0.0477646111 23.6668837,-0.0477646111 23.0480366,0.309569026 C22.4291895,0.666902663 22.0480156,1.3272709 22.048125,2.041875 L22.048125,2.041875 Z" id="路径" fill="#F6AA22"></path>
                <path d="M7.078125,31.2418889 C6.63001993,31.2437137 6.20043951,31.0632178 5.88812498,30.741875 C5.48183726,30.3368056 5.31192108,29.7515388 5.43812498,29.191875 L7.078125,21.511875 C7.30937141,20.4185625 7.85101349,19.4151358 8.638125,18.621875 L21.078125,6.26187502 L23.198125,8.38187498 L10.788125,20.741875 C10.4235379,21.1396466 10.17759,21.6315424 10.078125,22.161875 L8.76812498,27.821875 L14.428125,26.561875 C14.9639125,26.4482184 15.4563719,26.1846486 15.848125,25.801875 L30.588125,11.061875 C30.6110814,10.9903382 30.6110814,10.9134118 30.588125,10.841875 C30.5494619,10.5676994 30.4148143,10.3161211 30.208125,10.131875 L26.438125,6.361875 L28.578125,4.24187498 L32.348125,8.011875 C33.0258211,8.67759091 33.46217,9.55028856 33.588125,10.491875 C33.7288213,11.4765784 33.4036018,12.4707152 32.708125,13.181875 L17.968125,27.921875 C17.1744143,28.7103562 16.1715783,29.2551494 15.078125,29.491875 L7.38812498,31.201875 C7.2865069,31.2261877 7.18258625,31.2395968 7.078125,31.2418889 Z M1.53812498,32.321875 L30.538125,32.321875 C31.3665521,32.321875 32.038125,32.9934479 32.038125,33.821875 C32.038125,34.6503021 31.3665521,35.321875 30.538125,35.321875 L1.53812498,35.321875 C0.70969786,35.321875 0.0381249844,34.6503021 0.0381249844,33.821875 C0.0381249844,32.9934479 0.70969786,32.321875 1.53812498,32.321875 Z" id="形状" fill="#FF6800"></path>
            </g>
        </g>
    </g>
</svg>