<?xml version="1.0" encoding="UTF-8"?>
<svg width="38px" height="36px" viewBox="0 0 38 36" version="1.1" xmlns="http://www.w3.org/2000/svg" xmlns:xlink="http://www.w3.org/1999/xlink">
    <title>管理-0@2x</title>
    <g id="页面-1" stroke="none" stroke-width="1" fill="none" fill-rule="evenodd">
        <g id="首页" transform="translate(-40.000000, -339.000000)" fill-rule="nonzero">
            <g id="管理-0" transform="translate(40.000000, 339.000000)">
                <path d="M0.041593285,4.56073945 C0.0414777455,5.31560294 0.44412625,6.01317502 1.09783795,6.39064013 C1.75154966,6.76810524 2.55698906,6.76810524 3.21070076,6.39064013 C3.86441247,6.01317502 4.26706097,5.31560294 4.26694543,4.56073945 C4.26706097,3.80587596 3.86441247,3.10830389 3.21070076,2.73083878 C2.55698906,2.35337367 1.75154966,2.35337367 1.09783795,2.73083878 C0.44412625,3.10830389 0.0414777455,3.80587596 0.041593285,4.56073945 L0.041593285,4.56073945 Z" id="路径" fill="#FFCA5F"></path>
                <path d="M19.9958187,25.4551056 C16.9367169,25.4551056 14.178834,23.6123472 13.0081664,20.7861057 C11.8374988,17.9598642 12.4845895,14.7067195 14.6477011,12.5436079 C16.8108127,10.3804962 20.0639574,9.73340551 22.890199,10.9040731 C25.7164405,12.0747406 27.5591989,14.8326236 27.5591989,17.8917253 C27.5533805,22.0664525 24.1705458,25.4492872 19.9958187,25.4551056 L19.9958187,25.4551056 Z M19.9958187,13.4973592 C18.2184634,13.4973592 16.616118,14.5680121 15.9359536,16.2100742 C15.2557892,17.8521363 15.6317525,19.7422316 16.8885325,20.9990115 C18.1453124,22.2557915 20.0354077,22.6317548 21.6774698,21.9515904 C23.3195319,21.271426 24.3901848,19.6690806 24.3901848,17.8917253 C24.3901848,15.4647839 22.4227601,13.4973592 19.9958187,13.4973592 L19.9958187,13.4973592 Z" id="形状" fill="#FFFFFF"></path>
                <path d="M9.66483276,19.4762324 L2.12257924,19.4762324 L2.12257924,17.8917253 C2.12684593,9.21353582 8.36427808,1.7924095 16.9123501,0.295260131 C25.4604221,-1.20188924 33.8487413,3.65761448 36.8021567,11.8177817 L33.8232835,12.8741197 C31.4941636,6.43686149 25.030873,2.45847469 18.2345243,3.27868015 C11.4381756,4.09888562 6.10691546,9.50067716 5.37610034,16.3072183 L9.66483276,16.3072183 L9.66483276,19.4762324 Z M19.9958187,35.7544014 C12.4811395,35.7315125 5.77539147,31.0320096 3.18948062,23.9762324 L6.16835386,22.9198944 C8.50643849,29.3457791 14.9656485,33.3118236 21.7540816,32.4897474 C28.5425148,31.6676711 33.8683238,26.2744661 34.6049736,19.4762324 L30.3162412,19.4762324 L30.3162412,16.3072183 L37.8584947,16.3072183 L37.8584947,17.8917253 C37.8468531,27.7521828 29.8562761,35.7427598 19.9958187,35.7544014 Z" id="形状" fill="#FFFFFF"></path>
            </g>
        </g>
    </g>
</svg>